<svg xmlns="http://www.w3.org/2000/svg" width="298.553" height="128.849" viewBox="0 0 298.553 128.849">
  <g transform="translate(0 0)">
    <path d="M539.2,286.887a1.413,1.413,0,0,1-.559.036c-4.187,0-8.372,0-12.559.013a.869.869,0,0,1-.885-.509c-2.581-4.6-5.189-9.179-7.77-13.776a.891.891,0,0,0-.935-.535c-1.033.041-2.072.022-3.106.007-.3,0-.419.084-.4.394.02.422,0,.845,0,1.268v12.366c0,.148-.008.3,0,.444.015.244-.092.348-.335.332-.127-.008-.254,0-.381,0h-11.48c-.629,0-.619.084-.619-.613v-46.23c0-.084.007-.17,0-.253-.021-.232.054-.362.314-.34.168.013.337,0,.507,0,6.385,0,12.77-.026,19.155.013a22.09,22.09,0,0,1,7.482,1.365,17.048,17.048,0,0,1,4.256,2.191,14.206,14.206,0,0,1,4.3,5.069,16.77,16.77,0,0,1,1.669,5.468,19.789,19.789,0,0,1,.25,3.46,14.5,14.5,0,0,1-3.777,9.673,13.66,13.66,0,0,1-2.277,1.908,12.306,12.306,0,0,1-2,1.215c-.465.205-.455.231-.193.684l4.24,7.342q2.47,4.273,4.938,8.546C539.119,286.568,539.242,286.7,539.2,286.887Zm-26.214-30.532q0,2.724,0,5.451c0,.507.007.513.524.513,1.712,0,3.424.016,5.136,0a9.355,9.355,0,0,0,3.1-.505,4.667,4.667,0,0,0,2.816-2.391,6.817,6.817,0,0,0,.459-4.974,5.319,5.319,0,0,0-1.933-2.9,6.059,6.059,0,0,0-3.554-1.146c-2.007-.016-4.014,0-6.023,0-.578,0-.527-.025-.527.567Q512.985,253.66,512.987,256.355Z" transform="translate(-344.771 -239.398)" fill="#d80318"/>
    <path d="M559.451,313.727v-22.77c0-.755,0-.755.784-.755H570.7c.084,0,.169,0,.253,0,.544.006.548.006.548.555,0,7.757.076,15.516-.021,23.273-.1,8.029-.008,16.057-.066,24.086a1.918,1.918,0,0,1-.054.755,1.276,1.276,0,0,1-.852-.345q-4.259-3.484-8.529-6.952c-1.96-1.6-3.931-3.185-5.879-4.8-3.7-3.068-7.379-6.158-11.077-9.228-1.151-.957-2.331-1.88-3.5-2.813-.179-.144-.375-.267-.593-.419a1.091,1.091,0,0,0-.082.682q-.007,11-.006,22.005c0,.893.093.759-.784.76q-5.233.007-10.465,0c-.084,0-.169,0-.253,0-.541-.007-.547-.007-.547-.561q0-6.626,0-13.253c0-3.108-.05-6.216.009-9.322.162-8.326.025-16.65.075-24.974,0-.105,0-.212,0-.318,0-.229.132-.287.333-.257a1.387,1.387,0,0,1,.65.373q2.649,2.155,5.293,4.318,4.474,3.67,8.936,7.354c2.4,1.993,4.745,4.052,7.167,6.017,2.669,2.164,5.261,4.422,7.951,6.561C559.259,313.742,559.311,313.771,559.451,313.727Z" transform="translate(-339.857 -230.879)" fill="#d80318"/>
    <path d="M580.779,239.515c-.653.86-1.233,1.629-1.819,2.392q-3.276,4.264-6.557,8.525-3.415,4.438-6.834,8.87c-.574.745-.578.738-.045,1.543q5.329,8.054,10.658,16.11,3.108,4.7,6.2,9.412c.078.12.155.241.227.354-.126.184-.287.118-.421.117-4.563-.057-9.125.121-13.688.108a1.612,1.612,0,0,1-1.569-.832c-2.085-3.226-4.229-6.414-6.35-9.618q-1.993-3.011-3.977-6.025c-.115-.173-.237-.342-.4-.58-.359.435-.695.827-1.014,1.233-.823,1.043-1.63,2.1-2.46,3.136a1.371,1.371,0,0,0-.308.926q.014,5.516,0,11.031c0,.817.069.708-.71.709q-5.707.005-11.414,0c-.756,0-.687.069-.687-.675q0-23.047,0-46.094c0-.042,0-.084,0-.127.006-.533.006-.538.565-.538q5.326,0,10.654,0c.359,0,.718,0,1.078,0,.465.007.466.011.473.5,0,.127,0,.253,0,.38V258.7a1.618,1.618,0,0,0,.526-.531c2.333-2.89,4.5-5.9,6.717-8.882q3.5-4.7,6.988-9.394a.857.857,0,0,1,.775-.407c4.312.014,8.624.009,12.936.011C580.435,239.493,580.539,239.5,580.779,239.515Z" transform="translate(-337.994 -239.398)" fill="#d80318"/>
    <path d="M492.848,313.8q0-11.508,0-23.015c0-.824-.123-.746.736-.748q15.949,0,31.9,0a2.194,2.194,0,0,0,.316,0c.35-.053.417.121.415.434-.022,3.3-.032,6.593-.048,9.889,0,.446-.012.448-.456.459-.128,0-.254,0-.381,0q-9.481,0-18.962,0c-.817,0-.707-.068-.708.711q-.007,3.171,0,6.341c0,.55.006.555.552.555,2.516,0,5.034.074,7.546-.019,2.789-.1,5.576-.015,8.362-.064.105,0,.211,0,.316,0,.209-.009.319.074.307.3-.007.127,0,.253,0,.38v9c0,.148,0,.3,0,.444a.211.211,0,0,1-.236.232c-.17,0-.339,0-.507,0H506.525c-.127,0-.254,0-.381,0-.475.011-.482.012-.482.494q-.005,3.519,0,7.038c0,.487.007.489.476.5.126,0,.254,0,.381,0h19.85c.169,0,.339.006.507,0,.208-.007.32.071.308.293-.007.127,0,.254,0,.381v9.447c0,.127,0,.254,0,.381.007.178-.065.279-.253.278-.149,0-.3,0-.444,0H493.51c-.743,0-.657.046-.661-.634,0-.126,0-.253,0-.381Z" transform="translate(-346.029 -230.715)" fill="#d80318"/>
    <path d="M470.543,255c0,4.862-.039,9.724.016,14.584a7.332,7.332,0,0,0,2.845,5.825,5.466,5.466,0,0,0,1.812.885,9.729,9.729,0,0,0,3.36.486,7.4,7.4,0,0,0,6.53-3.658,7.051,7.051,0,0,0,.973-3.043c.05-.654.064-1.3.066-1.957q.007-6.974,0-13.95c0-.127,0-.253,0-.38.006-.545.006-.55.554-.55q3.551,0,7.1,0c.148,0,.3-.006.443,0,.2.009.318-.042.315-.275q-.01-1.269,0-2.537c0-.233-.117-.277-.315-.275-1.31.012-2.62.018-3.93.025s-2.62.009-3.931.021c-.246,0-.334-.1-.327-.339.054-1.749-.1-3.5.084-5.252a4.336,4.336,0,0,0,0-.444c0-1.416,0-2.832,0-4.248,0-.49.008-.49.476-.5.063,0,.127,0,.19,0,.17,0,.339,0,.507,0,3.7-.048,7.392.145,11.089.088.544-.008.548,0,.548.553q0,3.169,0,6.341c0,7.608.052,15.218-.023,22.827a18.669,18.669,0,0,1-2.583,9.656,16.2,16.2,0,0,1-4.015,4.508,20.388,20.388,0,0,1-9.18,3.834,37.874,37.874,0,0,1-3.889.412,28.208,28.208,0,0,1-5.4-.34,21.174,21.174,0,0,1-5.354-1.442,16.889,16.889,0,0,1-5.356-3.414,16.008,16.008,0,0,1-2.966-3.766,18.82,18.82,0,0,1-1.919-5.064,18.432,18.432,0,0,1-.5-4.126c.012-5.178,0-10.356.006-15.534,0-.789-.073-.7.718-.705,1.079,0,2.162-.066,3.234.015,1.33.1,2.658.037,3.986.066.552.012.557,0,.559-.541,0-.782-.007-1.564,0-2.346,0-.268-.083-.379-.363-.368-1.37.052-2.74-.03-4.113.068-1.22.088-2.451.013-3.678.025-.289,0-.373-.127-.349-.383.006-.063,0-.127,0-.19v-9.511c0-.593-.056-.574.594-.574q5.8,0,11.607,0c.567,0,.57,0,.57.6Q470.544,247.55,470.543,255Z" transform="translate(-352.055 -239.41)" fill="#d80318"/>
    <path d="M395.162,313.743V290.791c0-.753,0-.753.785-.753,3.087,0,6.173-.035,9.258.008,3.72.053,7.44-.006,11.159.038a16.915,16.915,0,0,1,11.595,4.456,15.216,15.216,0,0,1,5.046,9.589,16.157,16.157,0,0,1,.015,3.341c-.067.775-.052,1.554-.129,2.333a14.449,14.449,0,0,1-2.707,7.379,14.843,14.843,0,0,1-3.465,3.207,19.152,19.152,0,0,1-8.577,3.315,28.8,28.8,0,0,1-4.224.241c-1.8-.008-3.594,0-5.391,0-.545,0-.553,0-.551.551q.018,5.992.041,11.982v.253c0,.745,0,.741-.753.786-3.166.189-6.335.054-9.5.066-.712,0-1.431-.079-2.147-.061-.346.009-.449-.13-.414-.446a4,4,0,0,0,0-.443V313.743Zm12.855-6.754q0,2.884,0,5.768c0,.48.009.489.49.489,1.774,0,3.548.036,5.32-.01a8.567,8.567,0,0,0,3.5-.725,4.477,4.477,0,0,0,2.473-2.577,8.526,8.526,0,0,0,.132-5.34,4.788,4.788,0,0,0-1.167-2,6.087,6.087,0,0,0-4.4-1.761c-1.944-.042-3.889-.012-5.833-.008-.5,0-.51.008-.511.527Q408.013,304.168,408.017,306.989Z" transform="translate(-362.81 -230.715)" fill="#d80318"/>
    <path d="M468.84,337.694h-.661c-3.952,0-7.906-.013-11.859.014a.853.853,0,0,1-.937-.614c-.614-1.5-1.263-2.988-1.9-4.481-.314-.741-.189-.623-.892-.625-2.346-.006-4.694-.071-7.038.015-2.767.1-5.532.032-8.3.057a.639.639,0,0,0-.686.478c-.656,1.576-1.379,3.123-1.969,4.727a.537.537,0,0,1-.576.436c-3.952-.014-7.9-.009-11.857-.011-.062,0-.125-.016-.26-.034.271-.585.524-1.15.791-1.707q2.339-4.878,4.684-9.75,2.846-5.932,5.686-11.866,2.09-4.364,4.177-8.73,2.867-5.99,5.734-11.982.954-2,1.9-4c.064-.134.127-.268.2-.395.193-.326.414-.335.594-.012.2.35.371.711.544,1.073q1.38,2.881,2.755,5.764,2.232,4.681,4.462,9.363c1.056,2.208,2.124,4.407,3.18,6.614q2.294,4.793,4.579,9.589,1.515,3.167,3.036,6.332,2.283,4.762,4.568,9.524A1.15,1.15,0,0,1,468.84,337.694Zm-23.886-24.63-.142-.011-4.126,9.479h8.2Z" transform="translate(-358.215 -230.895)" fill="#d80318"/>
    <path d="M440.022,239.49h18.141c.126,0,.254,0,.381,0,.545.007.548.007.549.554,0,1.438.064,2.878-.015,4.311-.1,1.816-.033,3.63-.069,5.444-.009.459-.012.469-.443.47-1.817,0-3.64.071-5.454-.018-1.986-.1-3.969-.026-5.953-.063-.67-.013-.625-.078-.625.668v14.078c0,.909.022,1.819,0,2.727-.183,6.21-.032,12.422-.081,18.633,0,.6.036.545-.551.545H434.229c-.105,0-.211,0-.316,0-.178,0-.282-.064-.275-.258,0-.105,0-.211,0-.318,0-5.686-.075-11.373.021-17.058.1-5.915.012-11.83.063-17.746q0-.158,0-.316c0-.628.086-.62-.612-.62H421.82c-.149,0-.3-.009-.444,0-.239.018-.357-.074-.34-.323.008-.125,0-.253,0-.38v-9.639a3.739,3.739,0,0,0,0-.381c-.023-.259.108-.33.34-.314.148.011.3,0,.444,0Z" transform="translate(-358.366 -239.397)" fill="#d80318"/>
    <path d="M474.813,290.037h18.01c.105,0,.211,0,.316,0,.683.007.613-.072.614.607q0,4.788,0,9.574c0,.127,0,.254,0,.381-.007.155-.095.221-.247.218s-.3,0-.443,0h-11.1c-.169,0-.339,0-.507,0-.186,0-.265.09-.259.273s0,.337,0,.507v35.123c0,.79,0,.791-.812.791H469.159c-.148,0-.3-.008-.444,0-.24.015-.353-.08-.334-.329.013-.169,0-.339,0-.507V301.363c0-.6.041-.546-.547-.546H456.61c-.148,0-.3-.008-.444,0-.234.014-.361-.071-.343-.323.008-.127,0-.253,0-.38v-9.384a3.16,3.16,0,0,0,0-.316c-.025-.26.057-.407.348-.381.147.013.3,0,.443,0Z" transform="translate(-352.39 -230.714)" fill="#d80318"/>
    <path d="M588.851,290.036q9.133,0,18.265,0c.812,0,.7-.061.7.721q.005,4.66,0,9.319c0,.17,0,.339,0,.507a.212.212,0,0,1-.239.23c-.127,0-.253,0-.381,0l-11.349.042c-.063,0-.127,0-.19,0-.472.011-.48.011-.482.5,0,1.328.064,2.658.068,3.984q.042,15.691.014,31.384c0,.875.131.784-.761.784q-5.676.005-11.352,0c-.148,0-.3-.006-.444,0-.191.007-.259-.089-.254-.269s0-.38,0-.571q0-17.531,0-35.062c0-.9.138-.79-.815-.791q-5.422-.005-10.845,0c-.126,0-.254,0-.381,0-.458-.01-.471-.01-.471-.444q-.005-4.944,0-9.891c0-.437.011-.443.531-.443q5.516,0,11.034,0Z" transform="translate(-332.787 -230.714)" fill="#d80318"/>
  </g>
  <g transform="translate(0 36.022)">
    <g>
      <path d="M367.555,316.554q0-22.8,0-45.592c0-.952-.114-.8.8-.8q15.158-.005,30.318,0c.763,0,.763,0,.763.78q0,5.644,0,11.288c0,.69.081.614-.6.614q-9.006,0-18.013,0a2.942,2.942,0,0,1-.381,0c-.347-.045-.451.123-.417.439a3.732,3.732,0,0,1,0,.38c0,10.738-.076,21.477.02,32.213.1,11.305.011,22.61.064,33.914,0,.105,0,.212,0,.318-.011.211.076.312.3.3.148-.009.3,0,.444,0q8.975,0,17.948,0c.834,0,.718-.08.718.7q.005,5.581,0,11.16c0,.128-.008.254,0,.381.02.256-.111.334-.345.32-.146-.009-.3,0-.444,0h-30.38c-.105,0-.212,0-.318,0-.472-.008-.473-.008-.482-.49,0-.148,0-.3,0-.444Z" transform="translate(-367.553 -270.151)"/>
      <path d="M626.972,316.546v.759q0,22.382,0,44.766c0,.882.139.784-.757.784q-15.19,0-30.38,0a3.15,3.15,0,0,0-.38,0c-.35.045-.414-.13-.413-.442q.012-5.8,0-11.6c0-.33.093-.443.425-.434.718.02,1.438.006,2.156.006h16.173c.663,0,.62.052.62-.613q0-33.164,0-66.326c0-.105,0-.212,0-.316.012-.213-.08-.313-.3-.3-.169.007-.337,0-.507,0H595.978c-.128,0-.254,0-.381,0-.546-.006-.551-.006-.551-.55q0-5.707,0-11.413c0-.687-.094-.635.654-.635q13.255,0,26.511,0c1.459,0,2.918.007,4.375-.007.319,0,.48.07.429.417a2.725,2.725,0,0,0,0,.38v45.526Z" transform="translate(-328.473 -270.139)"/>
      <path d="M576.73,346.1c.579-.626,1.16-1.229,1.713-1.858.807-.916,1.593-1.851,2.388-2.777a1.338,1.338,0,0,1,.218-.227c.226-.163.393-.082.408.2.013.253,0,.507,0,.76,0,.739.029,1.48-.006,2.217-.094,1.939-.074,3.879-.081,5.818,0,.428-.009.43-.462.435-.359,0-.72-.023-1.076.008s-.417-.129-.411-.437c.027-1.288.035-2.574.046-3.862a.422.422,0,0,0-.1-.39l-1.514,1.742c-.234.271-.465.544-.7.813-.415.476-.554.484-.983,0-.612-.7-1.2-1.407-1.808-2.11-.09-.105-.189-.2-.388-.416v.606c0,1.2-.007,2.407.006,3.611,0,.3-.088.417-.4.4-.422-.021-.845-.014-1.268,0-.245.007-.35-.093-.329-.334.006-.063,0-.127,0-.19q0-4.213,0-8.426c0-.171-.113-.42.125-.5.221-.073.306.163.43.3q1.89,2.125,3.788,4.241C576.45,345.85,576.58,345.958,576.73,346.1Z" transform="translate(-332.436 -257.953)"/>
      <path d="M504.286,345.981l-1.93,2.25c-.15.176-.293.359-.45.528a.364.364,0,0,1-.558.032,3.832,3.832,0,0,1-.4-.405c-.577-.67-1.146-1.346-1.725-2.016a.443.443,0,0,0-.353-.226v1.427c0,.887-.008,1.774,0,2.661,0,.293-.073.424-.391.4a7.861,7.861,0,0,0-1.139,0c-.348.027-.427-.116-.424-.435.012-1.541.006-3.083.006-4.625q0-1.9,0-3.8c0-.148,0-.3.008-.444.015-.182.135-.2.265-.124a.965.965,0,0,1,.233.21q1.979,2.213,3.956,4.428c.245.274.273.281.53-.007,1.243-1.4,2.538-2.758,3.717-4.218.078-.1.16-.195.239-.293.1-.124.221-.212.381-.142s.1.217.1.334c-.02,1.52.022,3.038-.028,4.559-.045,1.35-.009,2.7-.012,4.054,0,.541,0,.546-.559.538-.38-.006-.759-.036-1.138-.039-.224,0-.3-.1-.289-.311.038-.735-.027-1.469.055-2.209a18.486,18.486,0,0,0,.016-2.072Z" transform="translate(-345.329 -257.953)"/>
      <path d="M521.921,350.526c-.7,0-1.268-.008-1.837,0a.588.588,0,0,1-.526-.273,28.808,28.808,0,0,1-1.536-2.468c-.094-.155-.112-.4-.341-.418a5.039,5.039,0,0,0-.949.007c-.141.016-.115.2-.115.328,0,.782,0,1.563,0,2.346,0,.553,0,.555-.545.559-.422,0-.845-.006-1.268,0-.213,0-.313-.081-.3-.3.007-.126,0-.253,0-.38v-7.988c0-.107.008-.212,0-.318-.028-.278.095-.37.367-.364.655.013,1.31,0,1.965,0a10.9,10.9,0,0,1,2.27.111,3.026,3.026,0,0,1,2.271,1.534,2.951,2.951,0,0,1-1.134,4c-.364.217-.373.212-.131.608.516.847,1.037,1.69,1.555,2.535C521.733,350.179,521.8,350.306,521.921,350.526Zm-5.3-6.209c0,.435,0,.793,0,1.152,0,.151.055.239.218.237.591-.01,1.182.011,1.771-.036a1,1,0,0,0,.936-.732,1.33,1.33,0,0,0-1.4-1.894c-.063,0-.127,0-.19,0-.417.025-.95-.177-1.224.077C516.413,343.408,516.675,343.961,516.616,344.317Z" transform="translate(-342.31 -257.935)"/>
      <path d="M563.778,350.617c-.763,0-1.4-.019-2.029.008a.535.535,0,0,1-.573-.37,26.733,26.733,0,0,0-1.473-2.509c-.076-.124-.115-.292-.294-.294a5.391,5.391,0,0,0-.882.034c-.142.021-.1.21-.1.33,0,.8-.012,1.607,0,2.409.007.3-.086.415-.4.4-.443-.023-.888-.011-1.331,0-.209,0-.322-.07-.307-.293.006-.084,0-.169,0-.253q0-4.153,0-8.307c0-.525,0-.531.5-.532,1.141,0,2.283-.014,3.425,0a2.788,2.788,0,0,1,2.805,1.855,3.353,3.353,0,0,1-.2,2.979,4.294,4.294,0,0,1-1.289,1.1Zm-5.353-6.288c0,.318.008.635,0,.952-.007.212.069.309.289.306.548-.008,1.1.006,1.647-.012a.875.875,0,0,0,.841-.636,1.677,1.677,0,0,0,.014-.987.86.86,0,0,0-.887-.812c-.462-.023-.921-.02-1.384-.08-.5-.064-.512-.028-.519.509C558.423,343.823,558.426,344.076,558.426,344.329Z" transform="translate(-335.111 -257.941)"/>
      <path d="M424.366,350.53c-.655,0-1.3,0-1.955,0-.211,0-.277-.134-.366-.285-.5-.853-1.016-1.7-1.525-2.55-.084-.141-.123-.333-.336-.334a5.524,5.524,0,0,0-.882.034c-.129.021-.1.214-.1.339,0,.8-.014,1.605.006,2.408.007.306-.087.409-.394.391a11.42,11.42,0,0,0-1.267,0c-.322.018-.384-.125-.381-.412.013-1.119,0-2.239,0-3.358q0-2.535,0-5.069c0-.453.009-.463.442-.465,1.161,0,2.324,0,3.486,0a3.168,3.168,0,0,1,2.678,1.309,3,3,0,0,1-.893,4.329c-.35.184-.348.2-.138.571q.758,1.352,1.516,2.7A.5.5,0,0,1,424.366,350.53Zm-5.159-4.972a10.113,10.113,0,0,0,1.557.107,1.383,1.383,0,0,0,1.2-.687,1.848,1.848,0,0,0-.122-1.513.463.463,0,0,0-.4-.285c-.668-.055-1.337-.09-2.006-.129a.2.2,0,0,0-.232.231C419.205,344.036,419.207,344.791,419.207,345.559Z" transform="translate(-359.029 -257.94)"/>
      <path d="M467.137,346.408c0-1.588,0-3.122,0-4.654,0-.509,0-.51.509-.514.339,0,.677.019,1.014-.006s.435.082.429.42c-.02,1.119-.052,2.24,0,3.356.082,1.707.072,3.413.069,5.121,0,.156.09.367-.095.459a.475.475,0,0,1-.565-.152c-1.623-1.568-3.31-3.068-4.879-4.691-.07-.072-.134-.151-.216-.246a2.048,2.048,0,0,0-.163.928q.007,1.868,0,3.737c0,.449-.009.451-.448.459-.253,0-.506,0-.759,0-.762,0-.691.074-.693-.664q0-1.52,0-3.04v-5.681c.225-.139.342.027.476.109a12.055,12.055,0,0,1,1.641,1.48C464.714,343.953,465.886,345.163,467.137,346.408Z" transform="translate(-351.441 -257.948)"/>
      <path d="M548.471,350.545c-.776,0-1.447-.013-2.119.006-.268.007-.361-.159-.477-.339-.7-1.076-1.4-2.15-2.135-3.269-.488.489-.926.918-.832,1.673.07.561-.128,1.127-.074,1.7.014.155-.062.231-.221.23-.529,0-1.056,0-1.584,0a.2.2,0,0,1-.221-.24c0-.105,0-.211,0-.316v-8.172c0-.6-.059-.57.593-.568.38,0,.762.016,1.14-.006.316-.019.391.114.387.408-.015.928-.006,1.857-.006,2.787v.6a14.723,14.723,0,0,0,1.9-2.375,13.986,13.986,0,0,0,.937-1.345c.087-.187.278-.164.445-.156.626.033,1.25.07,1.922.108a6.994,6.994,0,0,1-.845,1.2c-.642.78-1.239,1.6-1.85,2.4a.671.671,0,0,0-.047.9c.662.977,1.3,1.972,1.951,2.955C547.706,349.291,548.088,349.842,548.471,350.545Z" transform="translate(-337.79 -257.953)"/>
      <path d="M486.857,345.871q0-2.09,0-4.18c0-.449.007-.457.437-.458,1.8,0,3.59,0,5.384-.007.3,0,.476.043.442.407a5.323,5.323,0,0,0,0,1.012c.033.357-.129.427-.438.408-1.1-.068-2.187.123-3.283.086-.464-.015-.466.007-.471.5,0,.337.015.677-.006,1.014-.019.311.108.4.406.394.949-.014,1.9,0,2.85-.011.313-.006.468.06.435.412a7.447,7.447,0,0,0,0,1.012c.013.275-.093.366-.367.361-.929-.013-1.858,0-2.786,0-.541,0-.538-.019-.53.507,0,.337.022.677-.006,1.012s.1.436.428.43c1.1-.015,2.2-.007,3.294,0,.758,0,.677-.074.682.675,0,.274-.013.55,0,.823s-.09.39-.366.364c-.125-.012-.253,0-.38,0-1.667,0-3.336,0-5,0-.786,0-.721.122-.722-.691Q486.855,347.9,486.857,345.871Z" transform="translate(-347.058 -257.941)"/>
      <path d="M525.351,346.9c-.23.3-.412.56-.616.8a.8.8,0,0,0-.191.577c.011.634-.008,1.268.008,1.9.008.278-.084.369-.36.359-.485-.019-.971-.009-1.458,0-.187,0-.271-.074-.259-.261,0-.083,0-.169,0-.253q0-4.15,0-8.3c0-.5-.032-.492.476-.489.4,0,.8.018,1.2,0,.3-.016.407.069.4.384-.02.929-.007,1.859-.007,2.788v.745a9.131,9.131,0,0,0,1.063-1.262c.575-.779,1.131-1.574,1.692-2.364.1-.136.161-.289.374-.287.689.008,1.377,0,2.181,0a19.006,19.006,0,0,1-1.2,1.57c-.526.684-1.042,1.377-1.573,2.058a.773.773,0,0,0-.022,1.016c.737,1.155,1.507,2.289,2.3,3.41.262.374.491.771.769,1.211-.674.043-1.275.068-1.874.125a.724.724,0,0,1-.758-.407C526.807,349.125,526.1,348.053,525.351,346.9Z" transform="translate(-340.939 -257.941)"/>
      <path d="M454.272,345.892c0-1.416.011-2.831-.007-4.247,0-.339.1-.423.429-.421,1.775.014,3.551,0,5.326.008.457,0,.461.009.468.439,0,.359-.007.718,0,1.077.006.217-.082.312-.3.3-.084,0-.169,0-.254,0-1.095.028-2.19.066-3.286.078-.277,0-.373.084-.359.361a9.486,9.486,0,0,1,0,1.14c-.023.352.134.418.446.414.971-.016,1.944,0,2.915-.011.261,0,.388.059.37.348a10.3,10.3,0,0,0,0,1.077c.013.278-.1.363-.369.36-.971-.012-1.944-.007-2.915,0-.431,0-.434.009-.439.458,0,.38.015.762-.006,1.14-.016.289.108.351.369.349,1.184-.011,2.367-.007,3.551,0,.526,0,.522.007.527.514,0,.38-.132.746-.093,1.13.015.157-.093.219-.241.216-.086,0-.17,0-.254,0q-2.694,0-5.389,0c-.484,0-.491-.007-.492-.477C454.27,348.723,454.272,347.308,454.272,345.892Z" transform="translate(-352.657 -257.941)"/>
      <path d="M427.72,346.932a1.989,1.989,0,0,0-.834,1.817c.047.478-.028.968-.027,1.452,0,.244-.081.342-.327.335-.465-.011-.929-.014-1.393,0-.259.009-.339-.1-.314-.336a1.719,1.719,0,0,0,0-.19q0-4.148,0-8.3c0-.495-.035-.486.48-.483.4,0,.8.018,1.2,0,.3-.018.4.079.395.389-.019.928-.006,1.857-.006,2.785v.745a10.931,10.931,0,0,0,1.1-1.316,19.873,19.873,0,0,0,1.428-2.081.922.922,0,0,1,.971-.528c.543.049,1.093.012,1.7.012a4.032,4.032,0,0,1-.809,1.215q-.965,1.171-1.846,2.406c-.45.627-.435.418-.041,1.018.974,1.479,1.962,2.948,2.941,4.422a.172.172,0,0,1,.033.213c-.614.035-1.256.059-1.895.116a.586.586,0,0,1-.6-.348C429.167,349.158,428.442,348.048,427.72,346.932Z" transform="translate(-357.715 -257.943)"/>
      <path d="M589.406,344.669c0,.971,0,1.943,0,2.914a3.1,3.1,0,0,1-2.237,2.956,5.366,5.366,0,0,1-3.058-.076,3.206,3.206,0,0,1-2.273-3.1c-.006-1.878,0-3.758,0-5.637,0-.484.007-.487.477-.495.4,0,.8.024,1.2-.007.365-.028.35.182.35.431,0,1.52-.01,3.041,0,4.561a6.489,6.489,0,0,0,.076,1.571,1.287,1.287,0,0,0,.961.977,3.69,3.69,0,0,0,1.443.1,1.382,1.382,0,0,0,1.023-1.351c.013-.717,0-1.435,0-2.154,0-1.246.007-2.491-.006-3.738,0-.291.061-.422.382-.4a11.413,11.413,0,0,0,1.267,0c.308-.015.4.1.393.4C589.4,342.642,589.406,343.656,589.406,344.669Z" transform="translate(-330.741 -257.942)"/>
      <path d="M571.435,344.684c0,.929-.016,1.86,0,2.789a3.191,3.191,0,0,1-3.216,3.191c-.335-.028-.675,0-1.014-.006a3.5,3.5,0,0,1-2.992-1.819,2.688,2.688,0,0,1-.344-1.451c-.015-1.9-.008-3.8,0-5.7,0-.441.009-.445.455-.451q.571-.009,1.141,0c.424.006.43.009.431.465q0,2.661,0,5.324a3.208,3.208,0,0,0,.093.81,1.18,1.18,0,0,0,.587.783,2.7,2.7,0,0,0,1.905.214,1.491,1.491,0,0,0,.925-1.512c.006-1.8,0-3.59,0-5.387,0-.807-.112-.687.706-.7q.411-.005.824,0c.492.007.5.008.5.537C571.438,342.741,571.435,343.712,571.435,344.684Z" transform="translate(-333.829 -257.941)"/>
      <path d="M435.362,345.9c0-1.394,0-2.789,0-4.182,0-.477.007-.484.485-.485,1.056,0,2.114-.032,3.168.007a3.386,3.386,0,0,1,2.658,1.242,3.248,3.248,0,0,1,.43,3.347,2.93,2.93,0,0,1-2.569,1.871,9.881,9.881,0,0,1-1.644.034c-.352-.015-.43.124-.421.439.016.654-.009,1.309.011,1.964.009.3-.087.415-.394.4-.422-.02-.845,0-1.267-.006-.449-.006-.457-.011-.458-.449C435.36,348.689,435.362,347.294,435.362,345.9Zm2.115-1.479c0,.357,0,.716,0,1.073,0,.2.064.312.289.3.336-.012.677.028,1.009-.012a1.413,1.413,0,0,0,1.146-.568,1.369,1.369,0,0,0-1.016-2.162c-.374-.039-.757,0-1.135-.011-.221-.006-.3.095-.293.3C437.482,343.706,437.477,344.065,437.477,344.422Z" transform="translate(-355.904 -257.942)"/>
      <path d="M548.242,344.732c0-1.035.008-2.069-.006-3.1,0-.291.06-.428.381-.4.336.026.676,0,1.014.006.6,0,.555-.053.555.532,0,1.31,0,2.619,0,3.928a10.7,10.7,0,0,0,.083,1.826,1.409,1.409,0,0,0,1.36,1.33,4.253,4.253,0,0,0,.5.035c1.06.014,1.536-.43,1.6-1.5.015-.252,0-.506,0-.761,0-1.625,0-3.252,0-4.877,0-.505.006-.507.522-.512.36,0,.719.016,1.077-.006.313-.018.461.059.437.412-.03.462-.007.928-.007,1.393,0,1.5,0,3,0,4.5a3.141,3.141,0,0,1-3.129,3.13c-.316,0-.634,0-.95,0a3.576,3.576,0,0,1-3.3-2.151,1.643,1.643,0,0,1-.145-.8Q548.244,346.222,548.242,344.732Z" transform="translate(-336.513 -257.941)"/>
      <path d="M416.673,344.753c0,.971-.008,1.943,0,2.914a2.512,2.512,0,0,1-.745,1.821,4.357,4.357,0,0,1-6.2-.027,2.381,2.381,0,0,1-.7-1.648c-.027-2.069,0-4.139-.018-6.208,0-.325.118-.394.407-.378a8.385,8.385,0,0,0,1.139,0c.356-.029.414.128.411.437-.012,1.774-.006,3.548,0,5.321,0,.149-.012.3,0,.444a1.507,1.507,0,0,0,1.59,1.455c.148,0,.3-.013.443,0,1.036.11,1.726-.559,1.727-1.755q0-2.153,0-4.307c0-.422.012-.845,0-1.267-.008-.246.079-.336.326-.328.422.015.846.019,1.267,0,.275-.012.366.08.362.359C416.665,342.641,416.673,343.7,416.673,344.753Z" transform="translate(-360.431 -257.942)"/>
      <path d="M538.13,350.539c-.574,0-1.179-.007-1.782,0a.363.363,0,0,1-.387-.342c-.137-.828-.684-.915-1.384-.854a19.414,19.414,0,0,1-2.024.043.514.514,0,0,0-.574.373,1.114,1.114,0,0,0-.076.173c-.1.649-.517.762-1.091.7a12.059,12.059,0,0,0-1.261-.008c.343-.795.655-1.526.974-2.255q1.459-3.324,2.922-6.645c.09-.206.124-.518.37-.544.285-.03.309.3.4.5q1.965,4.275,3.909,8.559A.3.3,0,0,1,538.13,350.539Zm-3.324-2.934c-.353-.858-.575-1.671-1-2.536l-.973,2.536Z" transform="translate(-339.723 -257.949)"/>
      <path d="M448.8,350.539h-1.871a.247.247,0,0,1-.273-.205c-.009-.04-.045-.075-.05-.115-.118-.8-.623-.952-1.345-.874a16.616,16.616,0,0,1-2.021.046.514.514,0,0,0-.574.373,1.063,1.063,0,0,0-.076.172c-.1.647-.516.766-1.089.7a9.675,9.675,0,0,0-1.076-.012.8.8,0,0,1-.159-.054c.3-.695.587-1.389.889-2.078q1.492-3.41,2.992-6.815a.724.724,0,0,1,.054-.114c.1-.145.1-.41.352-.389.191.018.225.234.291.382q1.984,4.4,3.957,8.8C448.81,350.392,448.8,350.438,448.8,350.539Zm-4.221-5.343-.138.012-.911,2.375h1.946Z" transform="translate(-355.063 -257.95)"/>
      <path d="M505.9,350.624c.345-.8.653-1.53.97-2.257q1.454-3.324,2.918-6.642c.089-.2.12-.525.371-.541.309-.02.333.334.428.545q1.895,4.2,3.77,8.4a.453.453,0,0,1,.067.405c-.587,0-1.194-.006-1.8,0a.366.366,0,0,1-.382-.348c-.133-.78-.636-.907-1.323-.848a20.321,20.321,0,0,1-2.086.045.515.515,0,0,0-.572.377,1.054,1.054,0,0,0-.075.172c-.095.6-.463.76-1.03.694A11.059,11.059,0,0,0,505.9,350.624Zm3.272-3.023h1.962l-.983-2.526C509.744,345.944,509.491,346.733,509.169,347.6Z" transform="translate(-343.787 -257.948)"/>
      <path d="M478.573,341.233c.6,0,1.224.011,1.853,0,.273-.007.349.15.437.36.405.97.83,1.933,1.239,2.9.278.659.544,1.323.818,1.99.209,0,.18-.184.22-.307.495-1.522,1.145-2.985,1.719-4.476.132-.342.294-.5.681-.473.5.036,1.007.009,1.509.009a1.374,1.374,0,0,1-.209.758c-.6,1.459-1.264,2.891-1.9,4.336-.539,1.233-1.132,2.443-1.6,3.706-.083.223-.123.545-.424.569-.33.027-.353-.32-.449-.528q-1.951-4.245-3.881-8.5A.31.31,0,0,1,478.573,341.233Z" transform="translate(-348.489 -257.942)"/>
      <path d="M473.947,346.874c0,1.1,0,2.2,0,3.3,0,.437-.011.441-.459.447-.36.006-.718,0-1.078,0-.527,0-.53-.006-.532-.566,0-.7,0-1.394,0-2.092,0-1.458,0-2.914,0-4.372,0-.442-.008-.448-.455-.451-.592-.006-1.184-.015-1.774,0-.308.011-.407-.1-.4-.4.012-.379-.014-.758-.039-1.137-.016-.258.052-.375.343-.374q3.327.016,6.655,0c.268,0,.393.081.363.362a6.09,6.09,0,0,1-.08,1.5,9.072,9.072,0,0,1-1.382.051c-.371.027-.838-.165-1.09.1-.224.237-.064.687-.068,1.041C473.94,345.142,473.947,346.008,473.947,346.874Z" transform="translate(-350.09 -257.941)"/>
      <path d="M449.467,346.768c0-1.1-.01-2.195.006-3.292,0-.329-.1-.444-.431-.432-.611.022-1.223,0-1.835.011-.28.008-.436-.04-.41-.373a7.02,7.02,0,0,0,0-1.076c-.023-.322.114-.4.4-.379.231.02.464,0,.7,0q2.912,0,5.825,0c.56,0,.579,0,.561.532-.014.414.193.941-.1,1.212-.257.239-.766.059-1.165.072-.337.012-.675,0-1.012,0-.455.007-.462.011-.466.445-.006.654,0,1.309,0,1.963,0,1.54,0,3.081,0,4.62,0,.443-.008.446-.444.452-.4,0-.8-.016-1.2.007-.32.019-.439-.073-.432-.416C449.48,349,449.467,347.886,449.467,346.768Z" transform="translate(-353.94 -257.941)"/>
      <path d="M406.158,346.893c0,1.1-.009,2.195.006,3.293,0,.321-.081.457-.425.432a10.321,10.321,0,0,0-1.2,0c-.26.012-.329-.107-.323-.337.008-.316,0-.634,0-.95.03-1.939-.153-3.875-.081-5.814.012-.307-.087-.4-.391-.391-.612.021-1.225-.006-1.836.012-.281.007-.37-.1-.36-.368.015-.38.015-.761,0-1.14-.012-.272.088-.394.363-.359a.912.912,0,0,0,.127,0q3.167,0,6.334,0c.442,0,.454.009.45.455s.179,1-.069,1.292-.833.08-1.269.109c-.21.014-.422,0-.633,0-.79,0-.686-.059-.689.661C406.155,344.824,406.158,345.858,406.158,346.893Z" transform="translate(-361.714 -257.935)"/>
    </g>
    <path d="M412.52,339.854a1.183,1.183,0,0,1,1.063-1.065,1.239,1.239,0,0,1,1.093,1.193,1.146,1.146,0,0,1-1.154,1.032A1.106,1.106,0,0,1,412.52,339.854Z" transform="translate(-359.83 -258.36)"/>
    <path d="M412.257,339.916a1.171,1.171,0,0,1-1.161,1.1,1.076,1.076,0,0,1-.995-1.093,1.123,1.123,0,0,1,1.051-1.123A1.281,1.281,0,0,1,412.257,339.916Z" transform="translate(-360.244 -258.358)"/>
  </g>
</svg>
