<svg xmlns="http://www.w3.org/2000/svg" viewBox="0 0 260 88" role="img" aria-label="WhatsApp">
  <rect width="260" height="88" rx="18" fill="#ffffff"/>
  <circle cx="44" cy="44" r="24" fill="#25D366"/>
  <path d="M35.5 52.5l2.3-8.5a12 12 0 1 1 5.2 5.1l-7.5 3.4Z" fill="#fff" opacity="0.98"/>
  <path d="M40.3 34.8c-.5 0-1 .2-1.4.6-.4.4-.8 1-.8 1.5 0 .4.1.9.3 1.4.4.9 1.2 2.1 2.5 3.4 1.3 1.3 2.5 2.1 3.4 2.5.5.2 1 .3 1.4.3.5 0 1.1-.4 1.5-.8.4-.4.6-.9.6-1.4 0-.2-.1-.4-.2-.6l-1.2-2.1c-.1-.2-.3-.3-.5-.3l-1.8.2c-.2 0-.4 0-.6-.1-.3-.1-.9-.5-1.8-1.4-.9-.9-1.3-1.5-1.4-1.8-.1-.2-.1-.4-.1-.6l.2-1.8c0-.2-.1-.4-.3-.5l-2.1-1.2c-.2-.1-.4-.2-.6-.2Z" fill="#fff"/>
  <text x="78" y="43" font-family="Arial, Helvetica, sans-serif" font-size="25" font-weight="700" fill="#1f2937">WhatsApp</text>
  <text x="78" y="63" font-family="Arial, Helvetica, sans-serif" font-size="12" fill="#6b7280">İletişim altyapısı</text>
</svg>
