<svg xmlns="http://www.w3.org/2000/svg" viewBox="0 0 96 32" role="img" aria-labelledby="title">
  <title id="title">Visa</title>
  <rect width="96" height="32" rx="6" fill="#fff"/>
  <path fill="#1a1f71" d="M37.2 22.3h-5.1l3.2-12.6h5.1l-3.2 12.6Zm19-12.3a12.8 12.8 0 0 0-4.6-.8c-5 0-8.6 2.5-8.6 6.2 0 2.7 2.6 4.2 4.6 5.1 2 .9 2.7 1.4 2.7 2.2 0 1.2-1.6 1.8-3 1.8-2 0-3.1-.3-4.8-1l-.7-.3-.7 4.2c1.2.5 3.4 1 5.7 1 5.4 0 8.9-2.5 8.9-6.5 0-2.1-1.4-3.8-4.3-5.1-1.8-.9-2.9-1.4-2.9-2.3 0-.8.9-1.6 2.9-1.6 1.7 0 2.9.3 3.8.7l.5.2.7-4Zm13.1-.3h-4c-1.2 0-2.1.3-2.6 1.5l-7.6 17.2h5.4l1-2.6h6.6l.6 2.6h4.8L69.3 9.7Zm-6.4 12.6 2-5.2.4-1.1.3 1c.2.8 1.2 5.3 1.2 5.3h-3.9ZM27.8 9.7l-5 8.6-.5-2.5c-.9-3-3.8-6.2-7.1-7.8l4.6 20.3h5.5l8.1-18.6h-5.6Z"/>
  <path fill="#f7b600" d="M18.2 9.7H9.9l-.1.4c6.5 1.5 10.8 5.2 12.5 9.6l-1.8-8.5c-.3-1.1-1.2-1.5-2.3-1.5Z"/>
</svg>
