<svg xmlns="http://www.w3.org/2000/svg" viewBox="0 0 260 88" role="img" aria-label="GurSoft.com.tr">
  <rect width="260" height="88" rx="18" fill="#ffffff"/>
  <rect x="22" y="18" width="52" height="52" rx="14" fill="url(#gGrad)"/>
  <path d="M47.4 30.2c-8.7 0-15.8 7-15.8 15.8S38.7 61.8 47.4 61.8c5.6 0 10.6-3 13.2-7.5l-5.8-3.4c-1.4 2.7-4.3 4.5-7.6 4.5-4.8 0-8.7-3.9-8.7-8.7s3.9-8.7 8.7-8.7c2.4 0 4.7 1 6.4 2.8l-4.8 4.8h12.7v-12.6l-4.2 4.2c-2.8-3.2-6.8-5-11.9-5Z" fill="#fff"/>
  <defs>
    <linearGradient id="gGrad" x1="22" y1="18" x2="74" y2="70" gradientUnits="userSpaceOnUse">
      <stop stop-color="#2563EB"/>
      <stop offset="1" stop-color="#0F766E"/>
    </linearGradient>
  </defs>
  <text x="92" y="43" font-family="Arial, Helvetica, sans-serif" font-size="26" font-weight="800" fill="#1f2937">GurSoft.com.tr</text>
  <text x="92" y="63" font-family="Arial, Helvetica, sans-serif" font-size="12" fill="#6b7280">Yazılım ve dijital çözümler</text>
</svg>
