<?xml version="1.0" encoding="utf-8"?>
<!-- Generator: Adobe Illustrator 25.4.1, SVG Export Plug-In . SVG Version: 6.00 Build 0)  -->
<svg version="1.1" id="Layer_1" xmlns="http://www.w3.org/2000/svg" xmlns:xlink="http://www.w3.org/1999/xlink" x="0px" y="0px"
	 viewBox="0 0 660.3 318.6" style="enable-background:new 0 0 660.3 318.6;" xml:space="preserve">
<style type="text/css">
	.st0{fill-rule:evenodd;clip-rule:evenodd;fill:url(#SVGID_1_);}
	.st1{fill-rule:evenodd;clip-rule:evenodd;fill:#0087C2;}
</style>
<g id="SGK_LOGOTYPE_00000051364814841006981930000012182530448597431682_">
	<linearGradient id="SVGID_1_" gradientUnits="userSpaceOnUse" x1="0.707" y1="129.1928" x2="659.5394" y2="129.1928">
		<stop  offset="0" style="stop-color:#154474"/>
		<stop  offset="1" style="stop-color:#0087C2"/>
	</linearGradient>
	<path class="st0" d="M315.9,1C182.5,5,101.5,29.9,47.5,73.4c-54,43.5-50.3,102.2-41.8,124.9c7.3,19.5,10.7,24.4,19.8,36.4
		c12,16,23.1,23.1,23.1,23.1s-86.1-113.9,65-166.5c151-52.6,419.2,2,419.2,2l126.9-56C659.5,37.2,449.3-3,315.9,1z"/>
	<path class="st1" d="M87.4,238.4c-0.5-0.3-1.2-0.4-2.2-0.1s-1.7,0.6-2.1,1.1c0.3,2.6,0.7,6.4,1.3,11.3c0.6,4.9,1.3,9.6,2.1,14.1
		c0.8,4.5,1.6,7.5,2.4,9c2.4,1.5,6.7,3,12.9,4.5c6.2,1.5,13,2.3,20.3,2.4c16.9-0.2,29.9-4.4,39.1-12.4c9.2-8,13.9-18.6,14-31.6
		c-0.1-8.1-2.3-15.2-6.6-21.1s-10.2-11.3-17.7-16.2c-4.5-2.9-8.8-5.6-12.8-8c-4.1-2.5-8.4-5.5-13-8.9c-4.8-3.5-8.5-7.4-11-11.6
		c-2.5-4.2-3.8-9-3.8-14.5c0.1-6.7,2.2-12.3,6.3-16.7c4.1-4.4,9.9-6.6,17.4-6.8c3.7,0,7,0.3,9.9,1.1c3,0.7,5.8,2.1,8.5,3.9
		c3.2,1.9,5.6,4.9,7.1,8.9c1.6,4,2.7,9.7,3.4,17.2c0.3,0.2,1,0.3,2,0.2c1-0.1,1.7-0.3,2-0.7c0.5-6.8,1.1-12.8,1.9-18
		c0.7-5.2,1.5-9.9,2.2-14.3c-4.4-0.4-9.4-1-14.8-2c-5.5-1-12.1-1.5-19.9-1.6c-13.4,0.1-24.6,3.6-33.6,10.7c-9,7.1-13.7,17.2-14,30.4
		c0,10.3,3,18.9,9,26c6,7.1,14.8,14.3,26.4,21.6c9.6,6.1,16.5,11.8,20.8,17.1c4.3,5.3,6.3,11.4,6.3,18.3c-0.1,7.3-2.2,13-6.3,17.1
		c-4.1,4-9.5,6.1-16.2,6.1c-4.4,0-8.6-0.4-12.4-1.4c-3.8-0.9-7.3-2.5-10.4-4.6c-4.2-2.8-7.8-6.6-10.7-11.3
		C92.2,253.1,89.6,246.6,87.4,238.4z"/>
	<path class="st1" d="M330.9,268.1c-1.7-0.7-2.9-1.5-3.6-2.2c-0.6-0.7-1-1.9-1.2-3.6c-0.3-2.7-0.5-6.2-0.5-10.5
		c0-4.3,0.1-8.8,0.2-13.4c-0.1-6.7,0.4-11,1.2-13c0.9-2,2.5-3.2,5-3.7c0.9-0.4,1.9-0.7,2.8-0.9c0.9-0.3,2-0.5,3.2-0.7
		c0.4-0.3,0.5-1,0.6-2c0-1-0.1-1.7-0.3-2c-2.2,0.1-5.2,0.3-9,0.4c-3.7,0.2-9.1,0.2-16.1,0.3c-6.6,0-12.9-0.2-19.1-0.4
		c-6.1-0.2-11.3-0.3-15.3-0.3c-0.4,0.3-0.5,1-0.5,2c0,1,0.2,1.8,0.5,2.2c2.2,0.1,4.2,0.3,6,0.4s3.7,0.5,5.7,1
		c3.5,0.5,5.8,1.6,7.1,3.5c1.2,1.9,2,5.2,2.2,10.1c0.3,4.3,0.4,9.3,0.3,15c-0.1,5.8-0.4,10.5-0.8,14.1c-0.2,2.4-0.8,4.3-1.7,5.7
		c-0.9,1.4-2.2,2.5-3.8,3.2c-1.1,0.5-2.8,0.9-5.1,1.2c-2.2,0.3-4.7,0.5-7.4,0.5c-17.3-0.3-30.9-7.1-40.8-20.5
		c-9.9-13.4-15-31.5-15.2-54.4c0.4-23.5,5.3-40.5,14.9-51c9.6-10.5,21.6-15.7,36.1-15.5c7.1,0,13.5,0.7,19,2.1
		c5.5,1.4,10.3,3.7,14.5,6.8c3.1,2,5.4,5.1,6.9,9.3c1.6,4.2,2.7,10.2,3.3,17.9c0.5,0.4,1.4,0.5,2.6,0.4c1.2-0.1,2-0.4,2.4-0.9
		c0-6.2,0.5-12.8,1.3-19.9c0.8-7.1,1.7-12.6,2.8-16.5c-5.4-0.6-12-1.6-19.8-3c-7.8-1.3-16.4-2.1-25.9-2.3c-10.2,0-19,0.8-26.3,2.2
		c-7.3,1.5-14.1,3.6-20.4,6.3c-13,5.8-23.2,14.4-30.5,26c-7.3,11.6-11,25.2-11.1,41c0.2,26.7,7.4,46.3,21.6,58.8
		c14.2,12.5,34.4,18.8,60.7,18.6c10.8-0.2,21.1-1.4,31-3.5c9.9-2.1,17.2-4,21.8-5.5c0.2-0.2,0.4-0.8,0.5-1.7
		C331,269,331,268.4,330.9,268.1z"/>
	<path class="st1" d="M433.1,135.3c3,0.3,5.6,0.7,7.5,1.1c2,0.4,3.8,0.9,5.4,1.5c1.6,0.5,2.8,1.1,3.4,1.9c0.6,0.8,0.9,1.6,0.9,2.4
		c0,2.1-0.9,4.6-2.6,7.4c-1.7,2.8-3.8,6.1-6.5,9.8c-8.2,10.7-16.3,20.1-24.3,28.1c-8,8-14.8,13.6-20.4,16.6
		c-0.2,0.1-0.4,0.5-0.5,1.1c-0.1,0.7-0.2,1.1-0.2,1.3c0.6,0.4,1.2,0.8,1.8,1.4c0.6,0.6,1.1,1.2,1.6,1.9c3.9,5.6,8.6,11.9,13.8,18.9
		c5.3,7,10.6,13.8,15.9,20.4c5.3,6.6,9.9,12,13.8,16.2c1.8,1.9,3.9,3.8,6.2,5.6c2.3,1.9,4.9,3.4,7.7,4.4c2.2,0.7,6,1.3,11.3,1.7
		s11,0.6,16.9,0.6c5.9,0,10.9-0.2,14.8-0.7c0.4-0.3,0.6-1,0.7-2c0.1-1,0-1.7-0.2-2c-2.5-0.1-4.7-0.3-6.7-0.5c-2-0.3-4-0.8-6-1.6
		c-1.6-0.6-3.3-1.3-4.8-2.3c-1.6-1-3.2-2.3-5-3.9c-5.1-4.9-11.6-11.8-19.5-20.9c-7.9-9.1-15.5-18.2-22.8-27.5
		c-7.3-9.3-12.5-16.7-15.5-22.2v-0.7c4.8-5.2,10.6-11.7,17.4-19.3c6.8-7.7,13.4-15.2,19.9-22.8c5.6-6.5,10.3-10.6,14.2-12.3
		c3.9-1.7,8.7-3,14.5-3.7c0.2-0.4,0.4-1.2,0.4-2.1c0-1-0.1-1.6-0.4-1.9l-28.2,0.7c-4,0-7.7-0.1-11.1-0.3c-3.4-0.2-7.9-0.3-13.3-0.4
		c-0.2,0.3-0.4,1-0.4,2S432.9,135,433.1,135.3z M394.1,202.3c0.1-4.3,0.1-9.7,0.2-16.2c0-6.5,0.1-13,0.1-19.4
		c0-6.4,0.1-11.6,0.2-15.6c0-4.1,0.4-7.2,1.2-9.6c0.8-2.3,2.4-3.8,5-4.5c1.2-0.4,2.7-0.7,4.3-0.9c1.7-0.3,3.4-0.5,5.2-0.7
		c0.2-0.4,0.4-1.2,0.4-2.1c0-1-0.1-1.6-0.4-1.9c-3.1,0-7.2,0.1-12.3,0.3c-5.1,0.2-10.5,0.3-16.1,0.3c-7.4,0-13.7-0.1-18.9-0.3
		c-5.2-0.2-9.2-0.3-11.9-0.3c-0.4,0.3-0.5,1-0.5,1.9c0,1,0.2,1.7,0.5,2.1c1.6,0.1,3.4,0.4,5.4,0.7c1.9,0.3,3.7,0.7,5.2,1.2
		c2.4,0.7,4.1,2.1,4.9,4.3s1.4,4.9,1.5,8.4c0.1,5.3,0.1,12.7,0.1,21.9c0,9.3,0,18.6,0.1,28c0.1,6.8,0.1,13.9,0.1,21.2
		c0,7.3,0,14.1-0.1,20.4c-0.1,6.3-0.1,11.4-0.2,15.3c-0.2,4.6-0.8,8.2-1.9,10.6c-1.1,2.4-3,3.9-5.8,4.5c-1.5,0.3-2.9,0.6-4.4,0.8
		c-1.5,0.2-3.5,0.5-6.2,0.8c-0.2,0.3-0.4,1-0.4,1.9c0,0.9,0.1,1.6,0.4,1.9c2.1,0,6.3-0.1,12.7-0.4s12.6-0.4,18.6-0.6
		c6,0,11.7,0.1,17.2,0.4c5.5,0.2,10,0.4,13.6,0.6c0.4-0.3,0.6-1,0.8-1.9c0.2-1,0.1-1.7-0.1-2.1c-1.7-0.2-3.5-0.4-5.4-0.7
		c-1.9-0.2-3.6-0.6-5.2-1c-2.8-0.5-4.8-1.8-5.9-3.7c-1.1-2-1.7-5.2-1.8-9.7c-0.2-8-0.4-17-0.4-26.7
		C394.2,221.8,394.1,212,394.1,202.3z"/>
	<path class="st1" d="M88.1,317.8l-2.8-6l2.5-1.2c1.1,1.5,2.2,2.6,3.5,3.5s2.4,1.2,3.5,1.2c0.8,0,1.5-0.2,2-0.6
		c0.5-0.4,0.8-0.9,0.8-1.6c0-1-1.1-1.9-3.2-2.8l-0.8-0.3c-3.1-1.3-5.1-2.4-6.1-3.4c-1-1-1.5-2.3-1.5-3.8c0-1.7,0.6-3.1,1.9-4.2
		c1.3-1.2,2.8-1.8,4.6-1.8c0.4,0,0.7,0,1,0.1c0.3,0,0.6,0.1,1,0.2c0.6,0.2,1.2,0.4,1.8,0.8l0.1-0.7h2l2.6,5.6l-2.5,1.2
		c-0.9-1.4-1.8-2.5-2.7-3.2c-1-0.7-2-1.1-3-1.1c-0.7,0-1.3,0.2-1.7,0.5c-0.4,0.3-0.6,0.8-0.6,1.4c0,1.1,1.4,2.2,4.3,3.3l1.4,0.5
		c2.4,1,4.1,2,4.9,2.9c0.9,1,1.3,2.1,1.3,3.6c0,1.8-0.7,3.3-2,4.5c-1.4,1.2-3.1,1.8-5.1,1.8c-0.9,0-1.6-0.1-2.3-0.3
		c-0.6-0.2-1.3-0.5-1.9-0.9l-0.1,0.8H88.1z"/>
	<path class="st1" d="M103.1,307.5c0-3.3,0.8-5.9,2.4-7.8c1.6-1.9,3.7-2.9,6.4-2.9c2.7,0,4.8,1,6.4,2.9c1.6,1.9,2.4,4.6,2.4,7.8
		c0,3.2-0.8,5.8-2.5,7.8c-1.6,2-3.8,3-6.3,3c-2.6,0-4.7-1-6.3-3C103.9,313.3,103.1,310.7,103.1,307.5z M108.7,307.5
		c0,2.5,0.3,4.4,0.9,5.8c0.6,1.4,1.4,2.1,2.4,2.1c1,0,1.8-0.7,2.3-2.1s0.9-3.4,0.9-5.8c0-2.5-0.3-4.4-0.8-5.8
		c-0.6-1.4-1.3-2.1-2.4-2.1c-1,0-1.8,0.7-2.3,2.1C109,303.1,108.7,305.1,108.7,307.5z"/>
	<path class="st1" d="M124.6,317.8l-2.8-6l2.5-1.2c1.1,1.5,2.2,2.6,3.5,3.5c1.2,0.8,2.4,1.2,3.5,1.2c0.8,0,1.5-0.2,2-0.6
		c0.5-0.4,0.8-0.9,0.8-1.6c0-1-1.1-1.9-3.2-2.8L130,310c-3.1-1.3-5.1-2.4-6.1-3.4c-1-1-1.5-2.3-1.5-3.8c0-1.7,0.6-3.1,1.9-4.2
		c1.3-1.2,2.8-1.8,4.6-1.8c0.4,0,0.7,0,1,0.1c0.3,0,0.6,0.1,1,0.2c0.6,0.2,1.2,0.4,1.8,0.8l0.1-0.7h2l2.6,5.6l-2.5,1.2
		c-0.9-1.4-1.8-2.5-2.7-3.2c-1-0.7-2-1.1-3-1.1c-0.7,0-1.3,0.2-1.7,0.5c-0.4,0.3-0.6,0.8-0.6,1.4c0,1.1,1.4,2.2,4.3,3.3l1.4,0.5
		c2.4,1,4.1,2,4.9,2.9c0.9,1,1.3,2.1,1.3,3.6c0,1.8-0.7,3.3-2,4.5c-1.4,1.2-3.1,1.8-5.1,1.8c-0.9,0-1.6-0.1-2.3-0.3
		c-0.6-0.2-1.3-0.5-1.9-0.9l-0.1,0.8H124.6z"/>
	<path class="st1" d="M143.7,317.8v-2.6h0.2h0.2c1.2,0,1.9-0.1,2.1-0.4c0.3-0.3,0.4-0.9,0.4-2v-4l-4.4-7.2c-0.5-0.8-1-1.3-1.4-1.6
		c-0.4-0.2-1-0.4-1.7-0.4h-0.3v-2.6h10.5v2.6l-0.4,0h-0.3c-0.5,0-0.8,0-1,0.1c-0.2,0.1-0.3,0.2-0.3,0.4c0,0.1,0.1,0.5,0.4,1l0.1,0.2
		l2.3,3.9l2.3-4l0.4-0.8c0.1-0.2,0.1-0.3,0.1-0.4c0-0.1-0.1-0.2-0.3-0.3c-0.1,0-0.2-0.1-0.3-0.1c-0.1,0-0.3,0-0.5,0h-0.3h-0.3v-2.6
		h7.9v2.6h-0.4c-0.7,0-1.3,0.1-1.7,0.3c-0.4,0.2-0.8,0.7-1.3,1.6l-4.2,7.1v4.1c0,1,0.1,1.7,0.4,2c0.3,0.3,0.8,0.4,1.7,0.4h0.4h0.4
		v2.6H143.7z"/>
	<path class="st1" d="M164.9,308.9l4.1,0l-2-7.1L164.9,308.9z M156.7,317.8v-2.6h0.4c0.8,0,1.5-0.1,1.8-0.4c0.4-0.3,0.8-1,1.2-2.2
		l5.3-15.4h4.7l5.1,15.7c0.3,1,0.7,1.7,1,2c0.3,0.3,0.8,0.4,1.5,0.4h0.2h0.2v2.6h-10.2v-2.6l0.8,0c0.5,0,0.9-0.1,1.2-0.3
		c0.3-0.2,0.4-0.5,0.4-0.8c0-0.1,0-0.2,0-0.4c0-0.2-0.1-0.4-0.2-0.6l-0.1-0.3l-0.4-1.5h-5.6l-0.7,2.3l-0.1,0.5l0,0.4
		c0,0.2,0.1,0.4,0.4,0.5c0.3,0.1,0.6,0.2,1.1,0.2h0.1h0.8v2.6H156.7z"/>
	<path class="st1" d="M178.9,317.8v-2.6h0.1h0.1c1.1,0,1.7-0.1,2-0.4c0.3-0.3,0.4-0.9,0.4-2v-10.8c0-1.1-0.1-1.7-0.4-2
		c-0.3-0.3-0.8-0.4-1.7-0.4h-0.5v-2.6h10.6v2.6h-0.4c-1.2,0-2,0.1-2.3,0.4c-0.3,0.3-0.4,0.9-0.4,2v13.1h0.6c1.7,0,3.1-0.4,4.2-1.1
		c1.1-0.7,2-2,2.9-3.8l2.8,0.8l-3.3,6.8H178.9z"/>
	<path class="st1" d="M223.9,316.1c-0.5,0.1-0.9,0.1-1.2,0.2c-0.4,0.1-0.6,0.1-0.7,0.2c0,0-0.2,0.1-0.4,0.1
		c-0.2,0.1-0.5,0.2-0.9,0.4c-1.6,0.8-3.1,1.2-4.5,1.2c-0.5,0-1.1,0-1.5-0.1c-0.5-0.1-1-0.3-1.5-0.5c-1-0.4-2-1-2.8-1.8
		c-1.1-1-1.9-2.2-2.5-3.6c-0.3-0.7-0.5-1.4-0.6-2.2c-0.1-0.8-0.2-1.6-0.2-2.4c0-1.5,0.2-2.8,0.6-4.1c0.4-1.3,1.1-2.4,1.9-3.4
		c0.8-1,1.8-1.8,2.9-2.4c1.1-0.6,2.2-0.9,3.3-0.9c0.7,0,1.3,0.1,1.9,0.3c0.6,0.2,1.1,0.5,1.7,0.9l0.2-0.8h2.2l2,5.4l-2.7,1.2
		c-0.8-1.3-1.6-2.3-2.4-3.1c-0.8-0.7-1.6-1.1-2.4-1.1c-1.1,0-1.9,0.7-2.6,2c-0.7,1.4-1,3.2-1,5.4c0,2.5,0.4,4.5,1.1,6
		c0.8,1.5,1.8,2.2,3,2.2c0.7,0,1.2-0.2,1.5-0.6c0.3-0.4,0.5-1,0.5-1.8v-2.5c0-0.7-0.1-1.1-0.4-1.4c-0.3-0.3-0.8-0.4-1.5-0.4l-0.3,0
		h-0.3v-2.9h9.7v2.9h-0.2c-0.8,0-1.3,0.1-1.5,0.4c-0.2,0.2-0.3,0.8-0.3,1.7V316.1z"/>
	<path class="st1" d="M232.5,292.4c0-0.6,0.2-1,0.7-1.5c0.4-0.4,0.9-0.6,1.5-0.6c0.6,0,1.1,0.2,1.5,0.6c0.4,0.4,0.6,0.9,0.6,1.5
		c0,0.6-0.2,1.1-0.6,1.5c-0.4,0.4-0.9,0.6-1.5,0.6c-0.6,0-1.1-0.2-1.5-0.6C232.8,293.5,232.5,293,232.5,292.4z M238.3,292.4
		c0-0.6,0.2-1,0.6-1.5c0.4-0.4,0.9-0.6,1.5-0.6c0.6,0,1,0.2,1.5,0.6c0.4,0.4,0.6,0.9,0.6,1.5c0,0.6-0.2,1.1-0.6,1.5
		c-0.4,0.4-0.9,0.6-1.5,0.6c-0.6,0-1.1-0.2-1.5-0.6C238.5,293.5,238.3,293,238.3,292.4z M227.1,299.7v-2.6h9.9v2.6h-0.2
		c-0.9,0-1.4,0.1-1.7,0.4c-0.2,0.3-0.3,0.9-0.3,2v8.7c0,1.8,0.2,3,0.7,3.7c0.5,0.7,1.3,1,2.4,1c0.5,0,1-0.1,1.5-0.3
		c0.4-0.2,0.8-0.4,1.1-0.8c0.2-0.2,0.4-0.6,0.5-1c0-0.2,0.1-0.4,0.1-0.7s0-0.7,0-1.1v-1v-8.6c0-1.1-0.1-1.7-0.4-2
		c-0.3-0.3-0.8-0.4-1.5-0.4h-0.3h-0.3v-2.6h8.3v2.6h-0.2c-1.1,0-1.7,0.1-2,0.4c-0.3,0.3-0.4,0.9-0.4,2v8.4c0,1.7-0.1,3-0.4,3.7
		c-0.2,0.8-0.6,1.5-1.2,2.1c-0.6,0.6-1.3,1.1-2.3,1.4c-1,0.3-2,0.5-3.3,0.5c-2.6,0-4.5-0.6-5.7-1.7c-1.2-1.1-1.8-2.9-1.8-5.4v-9
		c0-1.1-0.1-1.7-0.4-2c-0.3-0.3-0.8-0.4-1.7-0.4H227.1z"/>
	<path class="st1" d="M255.9,317.8l-5.5-15.9c0,0,0-0.1,0-0.1c-0.5-1.4-1.5-2.1-3.2-2.1v-2.6h10.8v2.6h-0.5c-0.9,0-1.5,0.1-1.7,0.2
		c-0.3,0.1-0.4,0.4-0.4,0.7l0.1,0.4l0.2,0.8l3,9.2l2.9-8.9l0.2-0.8l0.1-0.7c0-0.3-0.1-0.6-0.4-0.7c-0.3-0.1-0.8-0.2-1.5-0.2h-0.3
		v-2.6h8.6v2.6h-0.4c-0.9,0-1.5,0.1-1.9,0.4c-0.4,0.3-0.8,1-1.1,2.1l-5.3,15.6H255.9z"/>
	<path class="st1" d="M268.8,317.8v-2.6h0.1h0.1c1.1,0,1.7-0.1,2-0.4c0.3-0.3,0.4-0.9,0.4-2v-10.8c0-1.1-0.1-1.7-0.4-2
		c-0.3-0.3-0.8-0.4-1.7-0.4h-0.5v-2.6h14.9l2.9,5.5l-2.6,1.1c-0.7-1.4-1.6-2.4-2.7-3c-1.1-0.6-2.4-0.9-3.9-0.9h-1.1v6h0.5
		c0.8,0,1.3-0.1,1.6-0.4c0.1-0.1,0.3-0.4,0.3-0.8c0.1-0.4,0.1-0.9,0.1-1.6h2.6v8.5h-2.6c0-1.3-0.1-2.1-0.4-2.4
		c-0.3-0.3-0.8-0.5-1.7-0.5h-0.5v6.5h1.1c1.8,0,3.3-0.3,4.4-1c1.1-0.7,2.1-1.8,3-3.4l2.6,0.8l-3,6.2H268.8z"/>
	<path class="st1" d="M288.2,317.8v-2.6h0.1h0.1c1.2,0,1.9-0.1,2.1-0.4c0.3-0.3,0.4-0.9,0.4-2v-10.8c0-1.1-0.1-1.7-0.4-2
		c-0.3-0.3-0.9-0.4-1.8-0.4h-0.5v-2.6h8.7l5.3,12.3v-7.3c0-1-0.1-1.7-0.4-2c-0.3-0.3-0.8-0.4-1.6-0.4h-0.3h-0.4v-2.6h8.6v2.6h-0.2
		c-1.2,0-1.9,0.1-2.1,0.4c-0.3,0.3-0.4,0.9-0.4,2v15.7h-4.1l-7.1-16.3v11.4c0,1,0.2,1.7,0.5,2c0.3,0.3,1,0.4,2.1,0.4h0.9v2.6H288.2z
		"/>
	<path class="st1" d="M308.9,317.8v-2.6h0.1h0.1c1.1,0,1.7-0.1,2-0.4c0.3-0.3,0.4-0.9,0.4-2v-10.8c0-1.1-0.1-1.7-0.4-2
		c-0.3-0.3-0.8-0.4-1.7-0.4h-0.5v-2.6h10.6v2.6h-0.4c-1.2,0-2,0.1-2.3,0.4c-0.3,0.3-0.4,0.9-0.4,2v13.1h0.6c1.7,0,3.1-0.4,4.2-1.1
		c1.1-0.7,2-2,2.9-3.8l2.8,0.8l-3.3,6.8H308.9z"/>
	<path class="st1" d="M330.5,292.4c0-0.6,0.2-1.1,0.7-1.5c0.4-0.4,0.9-0.7,1.5-0.7c0.6,0,1.1,0.2,1.6,0.6c0.4,0.4,0.6,0.9,0.6,1.6
		c0,0.6-0.2,1.1-0.6,1.6c-0.4,0.4-0.9,0.6-1.6,0.6c-0.6,0-1.1-0.2-1.5-0.7C330.8,293.5,330.5,293,330.5,292.4z M327.6,317.8v-2.6
		h0.1h0.1c1.1,0,1.7-0.1,2-0.4c0.3-0.3,0.4-0.9,0.4-2v-10.8c0-1.1-0.1-1.7-0.4-2c-0.3-0.3-0.8-0.4-1.7-0.4h-0.5v-2.6h10.2v2.6h-0.1
		c-1.1,0-1.7,0.1-2,0.4c-0.3,0.3-0.4,0.9-0.4,2v10.8c0,1.1,0.1,1.7,0.4,2c0.3,0.3,0.8,0.4,1.7,0.4h0.3h0.2v2.6H327.6z"/>
	<path class="st1" d="M338.9,317.8v-2.6h0.1h0.1c1.1,0,1.7-0.1,2-0.4c0.3-0.3,0.4-0.9,0.4-2v-10.8c0-1.1-0.1-1.7-0.4-2
		c-0.3-0.3-0.8-0.4-1.7-0.4h-0.5v-2.6h9.7v2.6h-0.2c-0.8,0-1.3,0.1-1.6,0.4c-0.2,0.2-0.3,0.9-0.3,2l0,4l4-4.7l0.6-0.8
		c0.1-0.2,0.2-0.3,0.2-0.4c0-0.2-0.1-0.3-0.3-0.4c-0.2-0.1-0.6-0.1-1.1-0.1h-0.3v-2.6h9.5v2.6h-0.2c-1,0-1.8,0.1-2.4,0.4
		c-0.7,0.3-1.4,0.9-2.3,1.8l-3.4,3.7l5.1,7c1.3,1.7,2.7,2.6,4.3,2.6h0.3v2.6h-10.6v-2.6h0.3c0.4,0,0.6,0,0.8-0.1
		c0.2-0.1,0.3-0.2,0.3-0.4c0-0.1,0-0.3-0.1-0.4c-0.1-0.2-0.2-0.4-0.4-0.7l-4.1-5.7v5c0,1.1,0.1,1.7,0.3,2c0.2,0.3,0.6,0.4,1.3,0.4
		h0.2h0.2v2.6H338.9z"/>
	<path class="st1" d="M369.9,317.8v-2.6h0.1h0.1c1.1,0,1.7-0.1,2-0.4c0.3-0.3,0.4-0.9,0.4-2v-10.8c0-1.1-0.1-1.7-0.4-2
		c-0.3-0.3-0.8-0.4-1.7-0.4h-0.5v-2.6h9.7v2.6h-0.2c-0.8,0-1.3,0.1-1.6,0.4c-0.2,0.2-0.3,0.9-0.3,2l0,4l4-4.7l0.6-0.8
		c0.1-0.2,0.2-0.3,0.2-0.4c0-0.2-0.1-0.3-0.3-0.4c-0.2-0.1-0.6-0.1-1.1-0.1h-0.3v-2.6h9.5v2.6h-0.2c-1,0-1.8,0.1-2.4,0.4
		c-0.7,0.3-1.4,0.9-2.3,1.8l-3.4,3.7l5.1,7c1.3,1.7,2.7,2.6,4.3,2.6h0.3v2.6h-10.6v-2.6h0.3c0.4,0,0.6,0,0.8-0.1
		c0.2-0.1,0.3-0.2,0.3-0.4c0-0.1,0-0.3-0.1-0.4c-0.1-0.2-0.2-0.4-0.4-0.7l-4.1-5.7v5c0,1.1,0.1,1.7,0.3,2c0.2,0.3,0.6,0.4,1.3,0.4
		h0.2h0.2v2.6H369.9z"/>
	<path class="st1" d="M392.3,299.7v-2.6h9.9v2.6h-0.2c-0.9,0-1.4,0.1-1.7,0.4c-0.2,0.3-0.3,0.9-0.3,2v8.7c0,1.8,0.2,3,0.7,3.7
		c0.5,0.7,1.3,1,2.4,1c0.5,0,1-0.1,1.5-0.3c0.4-0.2,0.8-0.4,1.1-0.8c0.2-0.2,0.4-0.6,0.5-1c0-0.2,0.1-0.4,0.1-0.7s0-0.7,0-1.1v-1
		v-8.6c0-1.1-0.1-1.7-0.4-2c-0.3-0.3-0.8-0.4-1.5-0.4H404h-0.3v-2.6h8.3v2.6h-0.2c-1.1,0-1.7,0.1-2,0.4c-0.3,0.3-0.4,0.9-0.4,2v8.4
		c0,1.7-0.1,3-0.4,3.7c-0.2,0.8-0.6,1.5-1.2,2.1c-0.6,0.6-1.3,1.1-2.3,1.4c-1,0.3-2,0.5-3.3,0.5c-2.6,0-4.5-0.6-5.7-1.7
		c-1.2-1.1-1.8-2.9-1.8-5.4v-9c0-1.1-0.1-1.7-0.4-2c-0.3-0.3-0.8-0.4-1.7-0.4H392.3z"/>
	<path class="st1" d="M420.6,306.5h0.7c1.7,0,2.8-0.2,3.5-0.7c0.7-0.5,1-1.3,1-2.4c0-1.1-0.4-2-1.2-2.5c-0.4-0.3-0.9-0.5-1.4-0.6
		c-0.6-0.1-1.2-0.2-2-0.2h-0.7V306.5z M413,317.8v-2.6h0.1h0.1c1.1,0,1.7-0.1,2-0.4c0.3-0.3,0.4-0.9,0.4-2v-10.8
		c0-1.1-0.1-1.7-0.4-2c-0.3-0.3-0.8-0.4-1.7-0.4H413v-2.6h8.4c0.7,0,1.4,0,1.9,0c0.5,0,1,0.1,1.5,0.2c0.9,0.1,1.7,0.3,2.3,0.6
		c1.2,0.5,2.2,1.3,2.9,2.3c0.7,1,1.1,2,1.1,3.2c0,1.2-0.4,2.3-1.2,3.3c-0.8,0.9-1.8,1.6-3.2,1.9l2.5,4.8c0.4,0.7,0.7,1.2,1.2,1.4
		c0.2,0.1,0.6,0.2,1,0.3c0.4,0.1,1,0.1,1.7,0.1v2.6h-7.2l-4.1-8.6h-1.1v3.7c0,1.1,0.1,1.7,0.4,2c0.3,0.3,0.8,0.4,1.6,0.4h0.3h0.4
		v2.6H413z"/>
	<path class="st1" d="M433.6,299.7v-2.6h9.9v2.6h-0.2c-0.9,0-1.4,0.1-1.7,0.4c-0.2,0.3-0.3,0.9-0.3,2v8.7c0,1.8,0.2,3,0.7,3.7
		c0.5,0.7,1.3,1,2.4,1c0.5,0,1-0.1,1.5-0.3c0.4-0.2,0.8-0.4,1.1-0.8c0.2-0.2,0.4-0.6,0.5-1c0-0.2,0.1-0.4,0.1-0.7s0-0.7,0-1.1v-1
		v-8.6c0-1.1-0.1-1.7-0.4-2c-0.3-0.3-0.8-0.4-1.5-0.4h-0.3H445v-2.6h8.3v2.6h-0.2c-1.1,0-1.7,0.1-2,0.4c-0.3,0.3-0.4,0.9-0.4,2v8.4
		c0,1.7-0.1,3-0.4,3.7c-0.2,0.8-0.6,1.5-1.2,2.1c-0.6,0.6-1.3,1.1-2.3,1.4c-1,0.3-2,0.5-3.3,0.5c-2.6,0-4.5-0.6-5.7-1.7
		c-1.2-1.1-1.8-2.9-1.8-5.4v-9c0-1.1-0.1-1.7-0.4-2c-0.3-0.3-0.8-0.4-1.7-0.4H433.6z"/>
	<path class="st1" d="M460,312.9c0,1.1,0.1,1.7,0.4,2c0.3,0.3,0.8,0.4,1.6,0.4h0.3h0.4v2.6h-8.6v-2.6l0.1,0h0.1
		c1.2,0,1.9-0.1,2.1-0.4c0.3-0.3,0.4-0.9,0.4-2v-10.8c0-1.1-0.1-1.7-0.4-2c-0.3-0.3-0.9-0.4-1.8-0.4h-0.5v-2.6h9.3l3.4,11.7
		l3.4-11.7h9v2.6H479c-1,0-1.7,0.1-2,0.4c-0.3,0.3-0.4,0.9-0.4,2v10.8c0,1.1,0.1,1.7,0.4,2c0.3,0.3,0.8,0.4,1.6,0.4h0.3h0.2v2.6
		h-9.9v-2.6l0.1,0h0.2c1,0,1.7-0.1,1.9-0.4c0.3-0.3,0.4-0.9,0.4-2v-11.4l-5,16.4H465l-5-16.7V312.9z"/>
	<path class="st1" d="M480.4,299.7v-2.6h9.9v2.6H490c-0.9,0-1.4,0.1-1.7,0.4c-0.2,0.3-0.3,0.9-0.3,2v8.7c0,1.8,0.2,3,0.7,3.7
		c0.5,0.7,1.3,1,2.4,1c0.5,0,1-0.1,1.5-0.3c0.4-0.2,0.8-0.4,1.1-0.8c0.2-0.2,0.4-0.6,0.5-1c0-0.2,0.1-0.4,0.1-0.7c0-0.3,0-0.7,0-1.1
		v-1v-8.6c0-1.1-0.1-1.7-0.4-2c-0.3-0.3-0.8-0.4-1.5-0.4h-0.3h-0.3v-2.6h8.3v2.6h-0.2c-1.1,0-1.7,0.1-2,0.4c-0.3,0.3-0.4,0.9-0.4,2
		v8.4c0,1.7-0.1,3-0.4,3.7c-0.2,0.8-0.6,1.5-1.2,2.1c-0.6,0.6-1.3,1.1-2.3,1.4c-1,0.3-2,0.5-3.3,0.5c-2.6,0-4.5-0.6-5.7-1.7
		c-1.2-1.1-1.8-2.9-1.8-5.4v-9c0-1.1-0.1-1.7-0.4-2c-0.3-0.3-0.8-0.4-1.7-0.4H480.4z"/>
</g>
</svg>
